<svg width="34" height="29" viewBox="0 0 34 29" fill="none" xmlns="http://www.w3.org/2000/svg">
<g filter="url(#filter0_g_4_1423)">
<mask id="mask0_4_1423" style="mask-type:alpha" maskUnits="userSpaceOnUse" x="-2" y="-3" width="37" height="36">
<rect x="-1.01869" y="-2.49521" width="35.4673" height="35.4673" fill="#D9D9D9"/>
</mask>
<g mask="url(#mask0_4_1423)">
<path d="M15.9777 27.0613C14.7461 27.0613 13.6994 26.6303 12.8373 25.7682C11.9753 24.9062 11.5442 23.8594 11.5442 22.6279H14.4998C14.4998 23.0466 14.6415 23.3976 14.9247 23.6808C15.208 23.9641 15.5589 24.1057 15.9777 24.1057C16.3964 24.1057 16.7473 23.9641 17.0306 23.6808C17.3138 23.3976 17.4555 23.0466 17.4555 22.6279C17.4555 22.2092 17.3138 21.8582 17.0306 21.575C16.7473 21.2917 16.3964 21.1501 15.9777 21.1501H1.93851V18.1945H15.9777C17.2092 18.1945 18.2559 18.6255 19.118 19.4876C19.98 20.3496 20.4111 21.3964 20.4111 22.6279C20.4111 23.8594 19.98 24.9062 19.118 25.7682C18.2559 26.6303 17.2092 27.0613 15.9777 27.0613ZM1.93851 12.2833V9.32766H21.8889C22.5293 9.32766 23.0588 9.1183 23.4775 8.69959C23.8962 8.28088 24.1056 7.75133 24.1056 7.11095C24.1056 6.47057 23.8962 5.94102 23.4775 5.52231C23.0588 5.1036 22.5293 4.89424 21.8889 4.89424C21.2485 4.89424 20.7189 5.1036 20.3002 5.52231C19.8815 5.94102 19.6722 6.47057 19.6722 7.11095H16.7166C16.7166 5.65778 17.2153 4.43243 18.2128 3.43491C19.2103 2.43739 20.4357 1.93864 21.8889 1.93864C23.342 1.93864 24.5674 2.43739 25.5649 3.43491C26.5624 4.43243 27.0612 5.65778 27.0612 7.11095C27.0612 8.56412 26.5624 9.78947 25.5649 10.787C24.5674 11.7845 23.342 12.2833 21.8889 12.2833H1.93851ZM26.3223 24.1057V21.1501C26.9627 21.1501 27.4922 20.9407 27.9109 20.522C28.3296 20.1033 28.539 19.5738 28.539 18.9334C28.539 18.293 28.3296 17.7635 27.9109 17.3447C27.4922 16.926 26.9627 16.7167 26.3223 16.7167H1.93851V13.7611H26.3223C27.7755 13.7611 29.0008 14.2598 29.9983 15.2573C30.9958 16.2549 31.4946 17.4802 31.4946 18.9334C31.4946 20.3866 30.9958 21.6119 29.9983 22.6094C29.0008 23.6069 27.7755 24.1057 26.3223 24.1057Z" fill="white"/>
</g>
</g>
<defs>
<filter id="filter0_g_4_1423" x="-7.58713e-05" y="4.64786e-05" width="33.4333" height="28.9999" filterUnits="userSpaceOnUse" color-interpolation-filters="sRGB">
<feFlood flood-opacity="0" result="BackgroundImageFix"/>
<feBlend mode="normal" in="SourceGraphic" in2="BackgroundImageFix" result="shape"/>
<feTurbulence type="fractalNoise" baseFrequency="0.99900001287460327 0.99900001287460327" numOctaves="3" seed="6683" />
<feDisplacementMap in="shape" scale="3.8683154582977295" xChannelSelector="R" yChannelSelector="G" result="displacedImage" width="100%" height="100%" />
<feMerge result="effect1_texture_4_1423">
<feMergeNode in="displacedImage"/>
</feMerge>
</filter>
</defs>
</svg>
