<svg width="28" height="16" viewBox="0 0 28 16" fill="none" xmlns="http://www.w3.org/2000/svg">
<path d="M21 1H5C2.79086 1 1 3.05744 1 5.59542V10.1908C1 12.7288 2.79086 14.7863 5 14.7863H21C23.2091 14.7863 25 12.7288 25 10.1908V5.59542C25 3.05744 23.2091 1 21 1Z" stroke="white" stroke-width="2"/>
<path d="M26 6.0954H27C27.2132 6.0954 27.4998 6.31835 27.5 6.74384V9.04169C27.5 9.46745 27.2132 9.6911 27 9.6911H26C25.7868 9.6911 25.5 9.46745 25.5 9.04169V6.74384C25.5002 6.31835 25.7868 6.0954 26 6.0954Z" fill="white" stroke="white"/>
<path d="M6.11719 4.94653H19.8828C20.7384 4.94681 21.5 5.71252 21.5 6.74438V9.04224C21.4999 10.074 20.7383 10.8398 19.8828 10.8401H6.11719C5.26168 10.8398 4.50014 10.074 4.5 9.04224V6.74438C4.5 5.71252 5.26161 4.94681 6.11719 4.94653Z" fill="white" stroke="white"/>
</svg>
