<svg width="110" height="85" viewBox="0 0 110 85" fill="none" xmlns="http://www.w3.org/2000/svg">
<g transform="translate(-150 -612)">
<path d="M204 690C231.614 690 254 679.031 254 665.5C254 651.969 231.614 641 204 641C176.386 641 154 651.969 154 665.5C154 679.031 176.386 690 204 690Z" fill="#C6BFEF"/>
<path d="M179.2 627.4C180.415 627.4 181.4 626.415 181.4 625.2C181.4 623.985 180.415 623 179.2 623C177.985 623 177 623.985 177 625.2C177 626.415 177.985 627.4 179.2 627.4Z" fill="#F7A8D5"/>
<path d="M179 619V631M173 625H185" stroke="#F7A8D5" stroke-width="1.4" stroke-linecap="round"/>
<path d="M183 664V676M177 670H189" stroke="#F7A8D5" stroke-width="1.4" stroke-linecap="round"/>
<path d="M161.001 649.2C162.216 649.2 163.201 648.215 163.201 647C163.201 645.785 162.216 644.8 161.001 644.8C159.786 644.8 158.801 645.785 158.801 647C158.801 648.215 159.786 649.2 161.001 649.2Z" fill="#F7A8D5"/>
<path d="M183.2 672.4C184.415 672.4 185.4 671.415 185.4 670.2C185.4 668.985 184.415 668 183.2 668C181.985 668 181 668.985 181 670.2C181 671.415 181.985 672.4 183.2 672.4Z" fill="#F7A8D5"/>
<path d="M161 641V653M155 647H167" stroke="#F7A8D5" stroke-width="1.4" stroke-linecap="round"/>
<path d="M253.001 644.2C254.216 644.2 255.201 643.215 255.201 642C255.201 640.785 254.216 639.8 253.001 639.8C251.786 639.8 250.801 640.785 250.801 642C250.801 643.215 251.786 644.2 253.001 644.2Z" fill="#F7A8D5"/>
<path d="M253 636V648M247 642H259" stroke="#F7A8D5" stroke-width="1.4" stroke-linecap="round"/>
<path d="M223.2 620.4C224.415 620.4 225.4 619.415 225.4 618.2C225.4 616.985 224.415 616 223.2 616C221.985 616 221 616.985 221 618.2C221 619.415 221.985 620.4 223.2 620.4Z" fill="#F7A8D5"/>
<path d="M213.412 632H198.588C194.95 632 192 634.899 192 638.476V659.524C192 663.101 194.95 666 198.588 666H213.412C217.05 666 220 663.101 220 659.524V638.476C220 634.899 217.05 632 213.412 632Z" fill="#F9E1F1" stroke="#D69BCB" stroke-width="1.6"/>
<path d="M213 654H199C196.239 654 194 656.239 194 659C194 661.761 196.239 664 199 664H213C215.761 664 218 661.761 218 659C218 656.239 215.761 654 213 654Z" fill="#F4C8E4"/>
<path d="M206 652C210.418 652 214 648.418 214 644C214 639.582 210.418 636 206 636C201.582 636 198 639.582 198 644C198 648.418 201.582 652 206 652Z" fill="#B58DFF"/>
<path d="M204.4 644.8C205.173 644.8 205.8 644.173 205.8 643.4C205.8 642.627 205.173 642 204.4 642C203.627 642 203 642.627 203 643.4C203 644.173 203.627 644.8 204.4 644.8Z" fill="#593078"/>
<path d="M207.4 644.8C208.173 644.8 208.8 644.173 208.8 643.4C208.8 642.627 208.173 642 207.4 642C206.627 642 206 642.627 206 643.4C206 644.173 206.627 644.8 207.4 644.8Z" fill="#593078"/>
<path d="M203 647H209" stroke="#593078" stroke-width="1.8" stroke-linecap="round"/>
</g>
</svg>
