<svg width="30" height="30" viewBox="0 0 30 30" fill="none" xmlns="http://www.w3.org/2000/svg">
<g transform="translate(-64 -200)">
<path d="M79 230C87.2843 230 94 223.284 94 215C94 206.716 87.2843 200 79 200C70.7157 200 64 206.716 64 215C64 223.284 70.7157 230 79 230Z" fill="#7A59C9"/>
<path d="M74.9496 213.1C76.1094 213.1 77.0496 212.16 77.0496 211C77.0496 209.841 76.1094 208.9 74.9496 208.9C73.7898 208.9 72.8496 209.841 72.8496 211C72.8496 212.16 73.7898 213.1 74.9496 213.1Z" fill="#D6C8FF"/>
<path d="M83.0492 213.1C84.209 213.1 85.1492 212.16 85.1492 211C85.1492 209.841 84.209 208.9 83.0492 208.9C81.8894 208.9 80.9492 209.841 80.9492 211C80.9492 212.16 81.8894 213.1 83.0492 213.1Z" fill="#D6C8FF"/>
<path d="M75.6992 217.7H82.2992" stroke="#D6C8FF" stroke-width="2.2" stroke-linecap="round"/>
</g>
</svg>
