<svg width="30" height="30" viewBox="0 0 30 30" fill="none" xmlns="http://www.w3.org/2000/svg">
<g transform="translate(-60 -204)">
<path d="M75 234C83.2843 234 90 227.284 90 219C90 210.716 83.2843 204 75 204C66.7157 204 60 210.716 60 219C60 227.284 66.7157 234 75 234Z" fill="#F36AB2"/>
<path d="M70.9496 217.1C72.1094 217.1 73.0496 216.16 73.0496 215C73.0496 213.841 72.1094 212.9 70.9496 212.9C69.7898 212.9 68.8496 213.841 68.8496 215C68.8496 216.16 69.7898 217.1 70.9496 217.1Z" fill="#2B0D64"/>
<path d="M79.0492 217.1C80.209 217.1 81.1492 216.16 81.1492 215C81.1492 213.841 80.209 212.9 79.0492 212.9C77.8894 212.9 76.9492 213.841 76.9492 215C76.9492 216.16 77.8894 217.1 79.0492 217.1Z" fill="#2B0D64"/>
<path d="M70.1992 220.5C73.3992 223.5 76.5992 223.5 79.7992 220.5" stroke="#2B0D64" stroke-width="2" stroke-linecap="round" fill="none"/>
</g>
</svg>
