<svg width="24" height="25" viewBox="0 0 24 25" fill="none" xmlns="http://www.w3.org/2000/svg">
<path d="M11.4644 16.7176C12.9064 16.7176 14.1322 16.2541 15.1416 15.327C16.1511 14.4 16.6558 13.2772 16.6558 11.9588C16.6558 10.7845 16.2798 9.79055 15.5279 8.97682C14.7759 8.16308 13.8644 7.75622 12.7931 7.75622C11.8249 7.75622 11.006 8.06523 10.3365 8.68325C9.66694 9.30128 9.33218 10.0635 9.33218 10.9699C9.33218 11.3614 9.40943 11.7425 9.56394 12.1133C9.71844 12.4841 9.9399 12.824 10.2283 13.133L11.9897 11.3717C11.9279 11.3305 11.8815 11.279 11.8506 11.2172C11.8197 11.1554 11.8043 11.0833 11.8043 11.0008C11.8043 10.7742 11.897 10.594 12.0824 10.4601C12.2678 10.3262 12.5047 10.2592 12.7931 10.2592C13.2051 10.2592 13.545 10.4292 13.8129 10.7691C14.0807 11.109 14.2146 11.5159 14.2146 11.9897C14.2146 12.6283 13.9519 13.1691 13.4266 13.612C12.9013 14.0549 12.2575 14.2764 11.4953 14.2764C10.527 14.2764 9.70814 13.885 9.03862 13.1021C8.36909 12.3193 8.03433 11.3614 8.03433 10.2283C8.03433 9.63089 8.14763 9.05922 8.37424 8.5133C8.60085 7.96737 8.92016 7.4884 9.33218 7.07639L7.57081 5.31502C6.91158 5.95364 6.40686 6.69527 6.05665 7.53991C5.70643 8.38454 5.53132 9.27038 5.53132 10.1974C5.53132 12.0103 6.10815 13.5502 7.26179 14.8172C8.41544 16.0841 9.8163 16.7176 11.4644 16.7176ZM3.70815 24.721V19.406C2.5339 18.3347 1.62232 17.0832 0.97339 15.6515C0.324463 14.2197 0 12.7107 0 11.1245C0 8.03433 1.08154 5.40772 3.24463 3.24463C5.40772 1.08154 8.03433 0 11.1245 0C13.6996 0 15.9811 0.757081 17.9691 2.27124C19.9571 3.7854 21.2498 5.75793 21.8472 8.18883L23.4541 14.5236C23.5571 14.915 23.485 15.2704 23.2377 15.5897C22.9905 15.909 22.6609 16.0687 22.2489 16.0687H19.7768V19.7768C19.7768 20.4566 19.5347 21.0386 19.0506 21.5227C18.5665 22.0068 17.9845 22.2489 17.3047 22.2489H14.8326V24.721H12.3605V19.7768H17.3047V13.5966H20.642L19.4678 8.80686C18.994 6.93218 17.9845 5.40772 16.4395 4.23347C14.8944 3.05922 13.1227 2.4721 11.1245 2.4721C8.73475 2.4721 6.69527 3.30643 5.006 4.9751C3.31673 6.64377 2.4721 8.67295 2.4721 11.0626C2.4721 12.2987 2.72446 13.4729 3.22918 14.5854C3.7339 15.6978 4.44978 16.6867 5.37682 17.5519L6.18025 18.2935V24.721H3.70815Z" fill="white"/>
</svg>
