<svg width="34" height="29" viewBox="0 0 34 29" fill="none" xmlns="http://www.w3.org/2000/svg">
<g filter="url(#filter0_g_1_2048)">
<mask id="mask0_1_2048" style="mask-type:alpha" maskUnits="userSpaceOnUse" x="-2" y="-3" width="37" height="36">
<rect x="-1.01845" y="-2.49524" width="35.4678" height="35.4678" fill="#D9D9D9"/>
</mask>
<g mask="url(#mask0_1_2048)">
<path d="M15.9779 27.0615C14.7463 27.0615 13.6995 26.6305 12.8375 25.7684C11.9754 24.9064 11.5444 23.8596 11.5444 22.6281H14.5C14.5 23.0468 14.6417 23.3978 14.9249 23.681C15.2082 23.9643 15.5591 24.1059 15.9779 24.1059C16.3966 24.1059 16.7476 23.9643 17.0308 23.681C17.3141 23.3978 17.4557 23.0468 17.4557 22.6281C17.4557 22.2093 17.3141 21.8584 17.0308 21.5751C16.7476 21.2919 16.3966 21.1502 15.9779 21.1502H1.93854V18.1946H15.9779C17.2094 18.1946 18.2562 18.6256 19.1182 19.4877C19.9803 20.3498 20.4113 21.3965 20.4113 22.6281C20.4113 23.8596 19.9803 24.9064 19.1182 25.7684C18.2562 26.6305 17.2094 27.0615 15.9779 27.0615ZM1.93854 12.2833V9.32765H21.8891C22.5295 9.32765 23.0591 9.1183 23.4778 8.69958C23.8965 8.28086 24.1059 7.75131 24.1059 7.11092C24.1059 6.47053 23.8965 5.94097 23.4778 5.52226C23.0591 5.10354 22.5295 4.89418 21.8891 4.89418C21.2488 4.89418 20.7192 5.10354 20.3005 5.52226C19.8818 5.94097 19.6724 6.47053 19.6724 7.11092H16.7168C16.7168 5.65773 17.2155 4.43236 18.2131 3.43483C19.2106 2.4373 20.436 1.93854 21.8891 1.93854C23.3423 1.93854 24.5677 2.4373 25.5652 3.43483C26.5628 4.43236 27.0615 5.65773 27.0615 7.11092C27.0615 8.56411 26.5628 9.78947 25.5652 10.787C24.5677 11.7845 23.3423 12.2833 21.8891 12.2833H1.93854ZM26.3226 24.1059V21.1502C26.963 21.1502 27.4926 20.9409 27.9113 20.5222C28.33 20.1034 28.5394 19.5739 28.5394 18.9335C28.5394 18.2931 28.33 17.7636 27.9113 17.3448C27.4926 16.9261 26.963 16.7168 26.3226 16.7168H1.93854V13.7611H26.3226C27.7758 13.7611 29.0012 14.2599 29.9987 15.2574C30.9962 16.2549 31.495 17.4803 31.495 18.9335C31.495 20.3867 30.9962 21.6121 29.9987 22.6096C29.0012 23.6071 27.7758 24.1059 26.3226 24.1059Z" fill="white"/>
</g>
</g>
<defs>
<filter id="filter0_g_1_2048" x="-7.58723e-05" y="-7.58723e-05" width="33.4339" height="29.0002" filterUnits="userSpaceOnUse" color-interpolation-filters="sRGB">
<feFlood flood-opacity="0" result="BackgroundImageFix"/>
<feBlend mode="normal" in="SourceGraphic" in2="BackgroundImageFix" result="shape"/>
<feTurbulence type="fractalNoise" baseFrequency="0.99900001287460327 0.99900001287460327" numOctaves="3" seed="6683" />
<feDisplacementMap in="shape" scale="3.8683154582977295" xChannelSelector="R" yChannelSelector="G" result="displacedImage" width="100%" height="100%" />
<feMerge result="effect1_texture_1_2048">
<feMergeNode in="displacedImage"/>
</feMerge>
</filter>
</defs>
</svg>
