<svg width="26" height="29" viewBox="0 0 26 29" fill="none" xmlns="http://www.w3.org/2000/svg">
<path d="M10.8537 4.88148C10.2934 4.32121 10.0133 3.6477 10.0133 2.86094C10.0133 2.07418 10.2934 1.40067 10.8537 0.840402C11.414 0.280134 12.0875 0 12.8742 0C13.661 0 14.3345 0.280134 14.8948 0.840402C15.455 1.40067 15.7352 2.07418 15.7352 2.86094C15.7352 3.6477 15.455 4.32121 14.8948 4.88148C14.3345 5.44175 13.661 5.72188 12.8742 5.72188C12.0875 5.72188 11.414 5.44175 10.8537 4.88148ZM8.58283 28.6094V10.0133H0V7.15235H25.7485V10.0133H17.1657V28.6094H14.3047V20.0266H11.4438V28.6094H8.58283Z" fill="white"/>
</svg>
