<svg width="34" height="30" viewBox="0 0 34 30" fill="none" xmlns="http://www.w3.org/2000/svg">
<mask id="mask0_1_2069" style="mask-type:alpha" maskUnits="userSpaceOnUse" x="-4" y="-6" width="41" height="41">
<rect x="-3.33008" y="-5.00049" width="40" height="40" fill="#D9D9D9"/>
</mask>
<g mask="url(#mask0_1_2069)">
<path d="M2.08252 27.125L0.0408497 12.25C-0.0980392 11.3611 0.117239 10.5556 0.686683 9.83333C1.25613 9.11111 1.98529 8.68056 2.87418 8.54167L5.41585 26.6667L17.2075 25H28.3325C28.1103 25.5833 27.77 26.0764 27.3117 26.4792C26.8534 26.8819 26.2909 27.125 25.6242 27.2083L5.74918 29.9583C4.83252 30.0972 4.02696 29.8889 3.33252 29.3333C2.63807 28.7778 2.22141 28.0417 2.08252 27.125ZM9.99918 21.8333C9.08252 21.8333 8.2978 21.5069 7.64502 20.8542C6.99224 20.2014 6.66585 19.4167 6.66585 18.5V3.33333C6.66585 2.41667 6.99224 1.63194 7.64502 0.979167C8.2978 0.326389 9.08252 0 9.99918 0H29.9992C30.9159 0 31.7006 0.326389 32.3534 0.979167C33.0061 1.63194 33.3325 2.41667 33.3325 3.33333V18.5C33.3325 19.4167 33.0061 20.2014 32.3534 20.8542C31.7006 21.5069 30.9159 21.8333 29.9992 21.8333H9.99918ZM9.99918 18.5H29.9992V3.33333H9.99918V18.5ZM13.3325 10H26.6659V6.66667H13.3325V10ZM13.3325 15H21.6659V11.6667H13.3325V15Z" fill="#84899E"/>
</g>
</svg>
