<svg width="30" height="30" viewBox="0 0 30 30" fill="none" xmlns="http://www.w3.org/2000/svg">
<mask id="mask0_1_2066" style="mask-type:alpha" maskUnits="userSpaceOnUse" x="-4" y="-3" width="37" height="37">
<rect x="-3.00234" y="-2.99957" width="35.9999" height="35.9999" fill="#D9D9D9"/>
</mask>
<g mask="url(#mask0_1_2066)">
<path d="M15.15 29.9999C13.05 29.9999 11.0812 29.5999 9.24372 28.7999C7.40623 27.9999 5.80623 26.9187 4.44374 25.5562C3.08124 24.1937 1.99999 22.5937 1.2 20.7562C0.399999 18.9187 0 16.95 0 14.85C0 11.2 1.1625 7.98123 3.48749 5.19374C5.81248 2.40624 8.77497 0.674998 12.375 0C11.925 2.47499 12.0625 4.89374 12.7875 7.25623C13.5125 9.61872 14.7625 11.6875 16.5375 13.4625C18.3124 15.2375 20.3812 16.4875 22.7437 17.2125C25.1062 17.9374 27.5249 18.0749 29.9999 17.625C29.3499 21.2249 27.6249 24.1874 24.8249 26.5124C22.0249 28.8374 18.7999 29.9999 15.15 29.9999ZM15.15 26.9999C17.35 26.9999 19.3874 26.4499 21.2624 25.3499C23.1374 24.2499 24.6124 22.7374 25.6874 20.8124C23.5374 20.6124 21.4999 20.0687 19.5749 19.1812C17.6499 18.2937 15.925 17.0875 14.4 15.5625C12.875 14.0375 11.6625 12.3125 10.7625 10.3875C9.86247 8.46248 9.32497 6.42498 9.14997 4.27499C7.22498 5.34999 5.71873 6.83123 4.63124 8.71873C3.54374 10.6062 2.99999 12.65 2.99999 14.85C2.99999 18.2249 4.18124 21.0937 6.54373 23.4562C8.90623 25.8187 11.775 26.9999 15.15 26.9999Z" fill="white" fill-opacity="0.5"/>
</g>
</svg>
