<svg width="42" height="30" viewBox="0 0 42 30" fill="none" xmlns="http://www.w3.org/2000/svg">
<mask id="mask0_1_2063" style="mask-type:alpha" maskUnits="userSpaceOnUse" x="-2" y="-8" width="46" height="46">
<rect x="-1.87744" y="-7.50073" width="45" height="45" fill="#D9D9D9"/>
</mask>
<g mask="url(#mask0_1_2063)">
<path d="M24.375 11.0625V7.875C25.4063 7.4375 26.4609 7.10937 27.5391 6.89062C28.6172 6.67187 29.75 6.5625 30.9375 6.5625C31.75 6.5625 32.5469 6.625 33.3281 6.75C34.1094 6.875 34.875 7.03125 35.625 7.21875V10.2187C34.875 9.9375 34.1172 9.72656 33.3516 9.58594C32.5859 9.44531 31.7813 9.375 30.9375 9.375C29.75 9.375 28.6094 9.52344 27.5156 9.82031C26.4219 10.1172 25.375 10.5312 24.375 11.0625ZM24.375 21.375V18.1875C25.4063 17.75 26.4609 17.4219 27.5391 17.2031C28.6172 16.9844 29.75 16.875 30.9375 16.875C31.75 16.875 32.5469 16.9375 33.3281 17.0625C34.1094 17.1875 34.875 17.3437 35.625 17.5312V20.5312C34.875 20.25 34.1172 20.0391 33.3516 19.8984C32.5859 19.7578 31.7813 19.6875 30.9375 19.6875C29.75 19.6875 28.6094 19.8281 27.5156 20.1094C26.4219 20.3906 25.375 20.8125 24.375 21.375ZM24.375 16.2187V13.0312C25.4063 12.5937 26.4609 12.2656 27.5391 12.0469C28.6172 11.8281 29.75 11.7187 30.9375 11.7187C31.75 11.7187 32.5469 11.7812 33.3281 11.9062C34.1094 12.0312 34.875 12.1875 35.625 12.375V15.375C34.875 15.0937 34.1172 14.8828 33.3516 14.7422C32.5859 14.6016 31.7813 14.5312 30.9375 14.5312C29.75 14.5312 28.6094 14.6797 27.5156 14.9766C26.4219 15.2734 25.375 15.6875 24.375 16.2187ZM10.3125 22.5C11.7813 22.5 13.2109 22.6641 14.6016 22.9922C15.9922 23.3203 17.375 23.8125 18.75 24.4687V6C17.4688 5.25 16.1094 4.6875 14.6719 4.3125C13.2344 3.9375 11.7813 3.75 10.3125 3.75C9.1875 3.75 8.07031 3.85937 6.96094 4.07812C5.85156 4.29687 4.78125 4.625 3.75 5.0625V23.625C4.84375 23.25 5.92969 22.9687 7.00781 22.7812C8.08594 22.5937 9.1875 22.5 10.3125 22.5ZM22.5 24.4687C23.875 23.8125 25.2578 23.3203 26.6484 22.9922C28.0391 22.6641 29.4688 22.5 30.9375 22.5C32.0625 22.5 33.1641 22.5937 34.2422 22.7812C35.3203 22.9687 36.4063 23.25 37.5 23.625V5.0625C36.4688 4.625 35.3984 4.29687 34.2891 4.07812C33.1797 3.85937 32.0625 3.75 30.9375 3.75C29.4688 3.75 28.0156 3.9375 26.5781 4.3125C25.1406 4.6875 23.7813 5.25 22.5 6V24.4687ZM20.625 30C19.125 28.8125 17.5 27.8906 15.75 27.2344C14 26.5781 12.1875 26.25 10.3125 26.25C9 26.25 7.71094 26.4219 6.44531 26.7656C5.17969 27.1094 3.96875 27.5937 2.8125 28.2187C2.15625 28.5625 1.52344 28.5469 0.914063 28.1719C0.304688 27.7969 0 27.25 0 26.5312V3.9375C0 3.59375 0.0859375 3.26562 0.257813 2.95312C0.429688 2.64062 0.6875 2.40625 1.03125 2.25C2.46875 1.5 3.96875 0.9375 5.53125 0.5625C7.09375 0.1875 8.6875 0 10.3125 0C12.125 0 13.8984 0.234375 15.6328 0.703125C17.3672 1.17187 19.0313 1.875 20.625 2.8125C22.2188 1.875 23.8828 1.17187 25.6172 0.703125C27.3516 0.234375 29.125 0 30.9375 0C32.5625 0 34.1563 0.1875 35.7188 0.5625C37.2813 0.9375 38.7813 1.5 40.2188 2.25C40.5625 2.40625 40.8203 2.64062 40.9922 2.95312C41.1641 3.26562 41.25 3.59375 41.25 3.9375V26.5312C41.25 27.25 40.9453 27.7969 40.3359 28.1719C39.7266 28.5469 39.0938 28.5625 38.4375 28.2187C37.2813 27.5937 36.0703 27.1094 34.8047 26.7656C33.5391 26.4219 32.25 26.25 30.9375 26.25C29.0625 26.25 27.25 26.5781 25.5 27.2344C23.75 27.8906 22.125 28.8125 20.625 30Z" fill="white" fill-opacity="0.5"/>
</g>
</svg>
