<svg width="31" height="31" viewBox="0 0 31 31" fill="none" xmlns="http://www.w3.org/2000/svg">
<mask id="mask0_1_2057" style="mask-type:alpha" maskUnits="userSpaceOnUse" x="-4" y="-4" width="39" height="38">
<rect x="-3.00514" y="-3.08427" width="37.0152" height="37.0152" fill="#D9D9D9"/>
</mask>
<g mask="url(#mask0_1_2057)">
<path d="M11.2588 30.846L10.6419 25.9106C10.3077 25.7821 9.99281 25.6279 9.6972 25.4479C9.40159 25.268 9.11241 25.0752 8.82966 24.8696L4.24132 26.7974L0 19.4715L3.97142 16.464C3.94571 16.2841 3.93286 16.1106 3.93286 15.9435V14.9025C3.93286 14.7354 3.94571 14.5619 3.97142 14.3819L0 11.3744L4.24132 4.04853L8.82966 5.97641C9.11241 5.77077 9.40802 5.57798 9.71648 5.39804C10.0249 5.21811 10.3334 5.06388 10.6419 4.93535L11.2588 0H19.7414L20.3583 4.93535C20.6925 5.06388 21.0074 5.21811 21.303 5.39804C21.5986 5.57798 21.8878 5.77077 22.1705 5.97641L26.7589 4.04853L31.0002 11.3744L27.0288 14.3819C27.0545 14.5619 27.0673 14.7354 27.0673 14.9025V15.9435C27.0673 16.1106 27.0416 16.2841 26.9902 16.464L30.9616 19.4715L26.7203 26.7974L22.1705 24.8696C21.8878 25.0752 21.5922 25.268 21.2837 25.4479C20.9753 25.6279 20.6668 25.7821 20.3583 25.9106L19.7414 30.846H11.2588ZM13.9578 27.7614H17.0038L17.5436 23.6743C18.3405 23.4686 19.0795 23.1666 19.7607 22.7682C20.4419 22.3697 21.0652 21.8878 21.6307 21.3223L25.4479 22.9031L26.9517 20.2812L23.6357 17.775C23.7642 17.4151 23.8542 17.036 23.9056 16.6375C23.957 16.2391 23.9827 15.8343 23.9827 15.423C23.9827 15.0117 23.957 14.6068 23.9056 14.2084C23.8542 13.81 23.7642 13.4308 23.6357 13.071L26.9517 10.5647L25.4479 7.94284L21.6307 9.56225C21.0652 8.97103 20.4419 8.47621 19.7607 8.07779C19.0795 7.67936 18.3405 7.37733 17.5436 7.17169L17.0424 3.0846H13.9964L13.4566 7.17169C12.6597 7.37733 11.9207 7.67936 11.2395 8.07779C10.5583 8.47621 9.93497 8.95818 9.36946 9.52369L5.55227 7.94284L4.04853 10.5647L7.36447 13.0324C7.23595 13.418 7.14598 13.8036 7.09457 14.1891C7.04316 14.5747 7.01746 14.986 7.01746 15.423C7.01746 15.8343 7.04316 16.2327 7.09457 16.6183C7.14598 17.0038 7.23595 17.3894 7.36447 17.775L4.04853 20.2812L5.55227 22.9031L9.36946 21.2837C9.93497 21.8749 10.5583 22.3697 11.2395 22.7682C11.9207 23.1666 12.6597 23.4686 13.4566 23.6743L13.9578 27.7614ZM15.5772 20.821C17.0681 20.821 18.3405 20.2941 19.3944 19.2402C20.4483 18.1863 20.9753 16.9139 20.9753 15.423C20.9753 13.9321 20.4483 12.6597 19.3944 11.6058C18.3405 10.5519 17.0681 10.0249 15.5772 10.0249C14.0606 10.0249 12.7818 10.5519 11.7407 11.6058C10.6997 12.6597 10.1792 13.9321 10.1792 15.423C10.1792 16.9139 10.6997 18.1863 11.7407 19.2402C12.7818 20.2941 14.0606 20.821 15.5772 20.821Z" fill="white" fill-opacity="0.5"/>
</g>
</svg>
