<svg width="32" height="32" viewBox="0 0 32 32" fill="none" xmlns="http://www.w3.org/2000/svg">
<mask id="mask0_1_2060" style="mask-type:alpha" maskUnits="userSpaceOnUse" x="-6" y="-6" width="44" height="44">
<rect x="-5.32986" y="-5.33383" width="42.6667" height="42.6667" fill="#D9D9D9"/>
</mask>
<g mask="url(#mask0_1_2060)">
<path d="M7.11111 24.8889H10.6667V12.4444H7.11111V24.8889ZM14.2222 24.8889H17.7778V7.11111H14.2222V24.8889ZM21.3333 24.8889H24.8889V17.7778H21.3333V24.8889ZM3.55556 32C2.57778 32 1.74074 31.6519 1.04444 30.9556C0.348148 30.2593 0 29.4222 0 28.4444V3.55556C0 2.57778 0.348148 1.74074 1.04444 1.04444C1.74074 0.348148 2.57778 0 3.55556 0H28.4444C29.4222 0 30.2593 0.348148 30.9556 1.04444C31.6519 1.74074 32 2.57778 32 3.55556V28.4444C32 29.4222 31.6519 30.2593 30.9556 30.9556C30.2593 31.6519 29.4222 32 28.4444 32H3.55556ZM3.55556 28.4444H28.4444V3.55556H3.55556V28.4444Z" fill="white" fill-opacity="0.59"/>
</g>
</svg>
