<svg width="127" height="128" viewBox="0 0 127 128" fill="none" xmlns="http://www.w3.org/2000/svg">
<path fill-rule="evenodd" clip-rule="evenodd" d="M120.718 72.3616C124.063 73.4162 125.92 76.9825 124.865 80.3272L123.282 85.3465L121.162 90.465L118.604 95.3792L115.627 100.052L112.255 104.447L108.512 108.532L104.427 112.275L100.032 115.647L95.3593 118.624L90.6911 121.054C87.5803 122.674 83.7458 121.465 82.1264 118.354C80.5071 115.243 81.7161 111.408 84.8269 109.789L89.0033 107.615L92.7406 105.234L96.2561 102.537L99.5231 99.5429L102.517 96.2759L105.214 92.7604L107.595 89.0231L109.641 85.0926L111.337 80.9987L112.753 76.5082C113.807 73.1635 117.374 71.307 120.718 72.3616Z" fill="#D69BCB"/>
<path fill-rule="evenodd" clip-rule="evenodd" d="M121.264 59.9032C117.84 60.6622 114.449 58.502 113.69 55.0781L112.671 50.4812L111.338 46.2551L109.642 42.1612L107.596 38.2307L105.215 34.4935L102.518 30.978L99.5242 27.7109L96.2571 24.7173L92.7416 22.0197L89.0044 19.6388L85.0739 17.5927L80.98 15.897L76.7538 14.5645L72.4277 13.6054L68.0344 13.027L63.6074 12.8337L59.1804 13.027L54.7871 13.6054L50.461 14.5645L46.2349 15.897L42.1409 17.5927L38.2105 19.6388L34.4732 22.0197L30.9577 24.7173L27.6907 27.7109L24.697 30.978L21.9994 34.4935L19.6186 38.2307L17.5724 42.1612L15.8767 46.255L14.5442 50.4813L13.5851 54.8074L13.0067 59.2007L12.8135 63.6278L13.0067 68.0547L13.5851 72.448L14.5442 76.7741L15.8767 81.0002L17.5724 85.0941L19.6186 89.0247L21.9994 92.7619L24.697 96.2774L27.6907 99.5444L30.9577 102.538L34.4731 105.236L38.2105 107.617L42.141 109.663L46.2348 111.358L50.461 112.691L54.7871 113.65L59.1804 114.228L63.8844 114.434C67.3881 114.587 70.1043 117.551 69.9514 121.055C69.7984 124.558 66.8341 127.275 63.3304 127.122L58.0725 126.892L52.5797 126.169L47.1708 124.97L41.8871 123.304L36.7686 121.184L31.8544 118.626L27.1818 115.649L22.7865 112.276L18.7019 108.533L14.959 104.449L11.5863 100.053L8.60955 95.3807L6.05138 90.4665L3.93125 85.348L2.26528 80.0643L1.06616 74.6554L0.343015 69.1626L0.101354 63.6277L0.343032 58.0928L1.06616 52.6L2.26529 47.1911L3.93124 41.9073L6.05138 36.7889L8.60956 31.8747L11.5863 27.2021L14.959 22.8068L18.7018 18.7221L22.7865 14.9792L27.1818 11.6066L31.8544 8.62983L36.7686 6.07166L41.8871 3.95152L47.1708 2.28555L52.5797 1.08644L58.0725 0.363293L63.6074 0.121635L69.1423 0.363293L74.6351 1.08643L80.044 2.28555L85.3278 3.95152L90.4462 6.07166L95.3604 8.62983L100.033 11.6066L104.428 14.9792L108.513 18.7221L112.256 22.8068L115.629 27.2021L118.605 31.8747L121.163 36.7889L123.284 41.9073L124.95 47.1911L126.089 52.3293C126.848 55.7532 124.687 59.1441 121.264 59.9032Z" fill="#F9E1F1"/>
</svg>
