<svg width="22" height="14" viewBox="0 0 22 14" fill="none" xmlns="http://www.w3.org/2000/svg">
<path fill-rule="evenodd" clip-rule="evenodd" d="M2.58801 8.62734C3.3026 8.62734 3.88178 9.20677 3.88201 9.92134V12.5103C3.88191 13.225 3.30267 13.8043 2.58801 13.8043H1.294C0.579396 13.8043 0.000101905 13.225 0 12.5103V9.92134C0.000227098 9.20682 0.579473 8.62741 1.294 8.62734H2.58801ZM8.62734 6.03933C9.3418 6.03953 9.92118 6.61883 9.92134 7.33333V12.5103C9.92134 13.225 9.3419 13.8041 8.62734 13.8043H7.33236C6.61785 13.8041 6.03835 13.2249 6.03835 12.5103V7.33333C6.03852 6.61887 6.61795 6.03959 7.33236 6.03933H8.62734ZM14.6657 3.01869C15.3804 3.0187 15.9597 3.59892 15.9597 4.31367V12.5093C15.9597 13.2241 15.3804 13.8043 14.6657 13.8043H13.3717C12.657 13.8043 12.0777 13.2241 12.0777 12.5093V4.31367C12.0777 3.59891 12.657 3.01869 13.3717 3.01869H14.6657ZM20.706 0C21.4207 0 22 0.579244 22 1.294V12.5103C21.9999 13.225 21.4207 13.8043 20.706 13.8043H19.412C18.6974 13.8042 18.1181 13.2249 18.118 12.5103V1.294C18.118 0.579291 18.6973 7.82048e-05 19.412 0H20.706Z" fill="white"/>
</svg>
