<svg width="20" height="14" viewBox="0 0 20 14" fill="none" xmlns="http://www.w3.org/2000/svg">
<path fill-rule="evenodd" clip-rule="evenodd" d="M6.93065 10.725C8.55924 9.34766 10.9446 9.3476 12.5732 10.725C12.655 10.7991 12.7021 10.9039 12.7044 11.0143C12.7066 11.1246 12.6638 11.2311 12.5851 11.3085L10.0347 13.8817C9.95993 13.9574 9.85775 14 9.75141 14C9.64514 14 9.54285 13.9573 9.46814 13.8817L6.91773 11.3085C6.83909 11.2311 6.79619 11.1246 6.79846 11.0143C6.8008 10.9038 6.84866 10.7991 6.93065 10.725ZM3.52447 7.29101C7.03326 4.02724 12.4676 4.02719 15.9764 7.29101C16.0556 7.36754 16.1005 7.47309 16.1016 7.58322C16.1027 7.69326 16.0598 7.79933 15.9823 7.87742L14.5073 9.36732C14.3555 9.51898 14.1104 9.52206 13.9547 9.37428C12.8025 8.33091 11.3029 7.75309 9.74843 7.75318C8.19517 7.75393 6.69748 8.33169 5.54611 9.37428C5.39026 9.52227 5.14439 9.51939 4.9925 9.36732L3.5195 7.87742C3.4417 7.79941 3.39819 7.6934 3.39923 7.58322C3.40028 7.47305 3.44521 7.36754 3.52447 7.29101ZM0.123256 3.86793C5.5049 -1.28925 13.995 -1.28937 19.3766 3.86793C19.4544 3.94445 19.4981 4.04905 19.4988 4.15816C19.4995 4.26742 19.4566 4.37284 19.3796 4.45037L17.9036 5.94026C17.7515 6.09271 17.5053 6.09446 17.351 5.94424C15.3006 3.99497 12.5795 2.90799 9.75042 2.9078C6.92099 2.90779 4.19954 3.99479 2.14888 5.94424C1.99458 6.09495 1.74723 6.09331 1.59526 5.94026L0.11928 4.45037C0.042337 4.37279 -0.000709991 4.26742 8.86081e-06 4.15816C0.000817872 4.04902 0.0453801 3.94441 0.123256 3.86793Z" fill="white"/>
</svg>
